<?xml version="1.0" encoding="UTF-8"?>
<svg id="Layer_1" data-name="Layer 1" xmlns="http://www.w3.org/2000/svg" viewBox="0 0 646 117.49">
  <defs>
    <style>
      .cls-1 {
        fill: #174383;
      }

      .cls-1, .cls-2, .cls-3, .cls-4, .cls-5 {
        stroke-width: 0px;
      }

      .cls-2 {
        fill: #1c4696;
      }

      .cls-3 {
        fill: #fff;
      }

      .cls-4 {
        fill: #3a4f9d;
      }

      .cls-5 {
        fill: #1d1d1b;
      }
    </style>
  </defs>
  <g>
    <path class="cls-1" d="m521.49,59.69c-.08.1-.18.19-.23.29-5.08,5.9-4.38,15.2,2.02,20.14l42.03,32.38c4.9,3.77,11.65,3.7,16.46-.18l41.81-33.54c6.21-5,6.81-14.16,1.83-19.96"/>
    <path class="cls-2" d="m621.93,37.55l1.44,1.11c7.08,5.47,7.18,16.3.21,21.91l-41.81,33.54c-4.81,3.87-11.56,3.95-16.46.18l-42.03-32.38c-6.5-5.02-7.12-14.55-1.79-20.43"/>
    <path class="cls-4" d="m579.28,2.48l38.32,28.87c6.46,4.86,6.55,14.53.19,19.52l-38.11,29.91c-4.39,3.45-10.55,3.51-15.01.15l-38.32-28.87c-6.46-4.86-6.55-14.53-.19-19.52l38.11-29.91c4.39-3.45,10.55-3.51,15.01-.15Z"/>
  </g>
  <path class="cls-3" d="m571.29,19.71l31.78,24.49c1.69,1.31,1.7,3.86.02,5.17l-.18.14c-1.18.93-2.85.93-4.03,0l-31.6-24.63c-1.68-1.31-1.68-3.84-.01-5.16h0c1.18-.93,2.84-.94,4.03-.02Z"/>
  <path class="cls-3" d="m565.58,31.49l27.5,21.31c1.46,1.13,1.47,3.34.02,4.48l-.16.12c-1.03.81-2.48.81-3.51,0l-27.34-21.43c-1.45-1.13-1.45-3.33-.01-4.47h0c1.03-.81,2.47-.82,3.51-.02Z"/>
  <path class="cls-3" d="m568.68,50.65l13.64,10.58c1.47,1.14,1.47,3.35.02,4.49l-.14.11c-1.04.82-2.5.81-3.54,0l-13.51-10.69c-1.44-1.14-1.44-3.33,0-4.47h0c1.03-.82,2.48-.82,3.52-.02Z"/>
  <g>
    <path class="cls-5" d="m199.59,89.66c0-1.55.08-3.51.25-5.88.16-2.37.33-4.21.49-5.52.16-.82.43-1.45.8-1.9.37-.45,1-.67,1.9-.67.49,0,1.18-.02,2.08-.06.9-.04,1.9-.08,3-.12,1.1-.04,2.23-.06,3.37-.06h38.12l-4.66-10.66-2.7-6.37c-1.39-3.1-2.92-5.82-4.6-8.15-1.68-2.33-3.6-4.25-5.76-5.76-2.17-1.51-4.62-2.65-7.35-3.43-2.74-.78-5.86-1.16-9.38-1.16-.33,0-.84.02-1.53.06-.7.04-1.49.1-2.39.18-.9.08-1.8.14-2.7.18-.9.04-1.72.1-2.45.18-1.72.17-2.57-.44-2.57-1.82v-4.85c0-.64.14-1.15.43-1.51.29-.36.88-.63,1.78-.79,3.51-.73,7.15-1.09,10.91-1.09,4,0,7.74.39,11.22,1.16,3.47.77,6.74,2.2,9.81,4.28s5.94,4.93,8.64,8.56c2.7,3.63,5.23,8.3,7.6,14l1.35,3.06,5.15,13.21c.16.57.31,1.14.43,1.71s.18,1.3.18,2.2v4.4c0,.9-.25,1.61-.74,2.14-.49.53-1.43.79-2.82.79h-42.53c-2.04,0-3.72.04-5.03.12-.08,1.06-.12,1.98-.12,2.76v1.78c.25,11.77,5.31,17.65,15.2,17.65h.49c1.47,0,2.21.69,2.21,2.08v4.66c0,.74-.12,1.27-.37,1.59-.25.33-.82.57-1.72.74-.49.08-.9.12-1.23.12h-.74c-7.85,0-13.81-2.35-17.9-7.05-4.09-4.7-6.13-11.63-6.13-20.78Zm29.79,6.37c0-.82.29-1.47.86-1.96.57-.49,1.23-.74,1.96-.74h4.66c.74,0,1.41.25,2.02.74.61.49.92,1.14.92,1.96v5.64c0,.74-.31,1.37-.92,1.9-.61.53-1.29.8-2.02.8h-4.66c-.74,0-1.39-.27-1.96-.8-.57-.53-.86-1.16-.86-1.9v-5.64Z"/>
    <path class="cls-5" d="m275.1,77.65c0-.65.25-1.18.74-1.59.49-.41,1.06-.61,1.72-.61h33.46l-.12-15.08c-.16-7.19-1.98-12.54-5.45-16.06-3.47-3.51-9.09-5.27-16.85-5.27-.9,0-2.17.02-3.8.06-1.64.04-3.06.14-4.29.31-1.64.16-2.45-.41-2.45-1.72v-5.03c0-.65.18-1.18.55-1.59.37-.41,1-.65,1.9-.74,2.12-.33,4.15-.53,6.07-.61,1.92-.08,3.33-.12,4.23-.12,5.56,0,10.24.74,14.04,2.21,3.8,1.47,6.88,3.56,9.25,6.25,2.37,2.7,4.09,5.88,5.15,9.56,1.06,3.68,1.67,7.72,1.84,12.13,0,.33.02,1.15.06,2.45.04,1.31.08,2.74.12,4.29.04,1.55.06,3.02.06,4.41v4.96c0,.86-.02,1.76-.06,2.7-.04.94-.08,1.86-.12,2.76-.04.9-.1,1.64-.18,2.21,0,1.64-.9,2.45-2.7,2.45h-40.7c-.66,0-1.23-.18-1.72-.55s-.74-.88-.74-1.53v-6.25Zm15.81-71.22c0-.82.28-1.47.85-1.96.56-.49,1.21-.74,1.94-.74h5.33c.73,0,1.35.25,1.88.74.52.49.79,1.15.79,1.96v6.62c0,.74-.26,1.35-.79,1.84-.52.49-1.19.74-2,.74h-5.21c-.81,0-1.47-.25-2-.74s-.79-1.1-.79-1.84v-6.62Z"/>
    <path class="cls-5" d="m341.04,106.68c0-1.13.65-1.7,1.96-1.7,1.39,0,3.14.02,5.27.06,2.12.04,3.84.06,5.15.06,3.27,0,6.19-.19,8.76-.56,2.57-.37,4.78-1.07,6.62-2.1,1.84-1.03,3.25-2.47,4.23-4.32.98-1.85,1.51-4.26,1.59-7.22v-4.94h-12.26c-8.25,0-14.59-2.12-19-6.37-4.41-4.25-6.62-10.66-6.62-19.24v-3.06c0-8.58,2.53-15.36,7.6-20.35,5.07-4.98,12.26-7.48,21.57-7.48,3.27,0,6.44.14,9.5.43,3.06.29,5.66.76,7.78,1.41.74.25,1.23.51,1.47.8.25.29.37.76.37,1.41v41.92h10.66v10.54h-10.79v4.66c-.16,4.58-.98,8.4-2.45,11.46-1.47,3.06-3.47,5.52-6.01,7.35-2.53,1.84-5.58,3.15-9.13,3.92-3.55.78-7.46,1.16-11.71,1.16-.82,0-1.86-.02-3.13-.06-1.27-.04-2.53-.08-3.8-.12-1.27-.04-2.43-.1-3.49-.18-1.06-.08-1.8-.16-2.21-.24-.82-.16-1.35-.38-1.59-.66-.25-.29-.37-.71-.37-1.27v-5.32Zm6.01-47.54c0,5.8,1.23,10.01,3.68,12.63,2.45,2.62,6.41,3.92,11.89,3.92h12.14v-36.04c-1.64-.16-3.23-.29-4.78-.37-1.55-.08-3.35-.12-5.39-.12-5.39,0-9.66,1.51-12.81,4.54-3.15,3.02-4.72,7.35-4.72,12.99v2.45Z"/>
    <path class="cls-5" d="m390.81,77.04c0-.49.41-.88,1.23-1.16.82-.29,1.8-.43,2.94-.43h3.92c.57,0,1.33-.02,2.27-.06.94-.04,1.86-.18,2.76-.43.9-.25,1.7-.59,2.39-1.04.69-.45,1.12-1.08,1.29-1.9.25-.98.37-2.16.37-3.55v-11.77c0-8.42,2.19-14.87,6.56-19.37,4.37-4.49,10.64-6.74,18.82-6.74s14.34,2.21,18.51,6.62c4.17,4.41,6.25,10.91,6.25,19.49v6.86c0,.98-.02,2.04-.06,3.19-.04,1.15-.14,2.17-.31,3.06.08,1.15.49,2.08,1.22,2.82.74.74,1.57,1.31,2.51,1.72.94.41,1.9.7,2.88.86.98.16,1.8.25,2.45.25h1.59v10.54h-1.59c-2.7,0-5.33-.39-7.91-1.16-2.57-.78-4.64-1.98-6.19-3.62-3.84,5.56-10.38,8.34-19.61,8.34-4.58,0-8.64-.67-12.2-2.02s-6.27-3.41-8.15-6.19c-1.64,1.88-3.76,3.13-6.38,3.74-2.62.61-5.44.92-8.46.92h-2.94c-1.14,0-2.12-.14-2.94-.43-.82-.29-1.23-.71-1.23-1.29v-7.23Zm27.46-19.49v5.64c0,2.7.16,4.99.49,6.86.74,3.43,2.33,5.93,4.78,7.48,2.45,1.55,5.64,2.33,9.56,2.33,5.39,0,9.19-1.37,11.4-4.11,2.21-2.74,3.31-6.93,3.31-12.56v-5.64c0-5.56-1.08-9.83-3.25-12.81-2.17-2.98-5.9-4.47-11.21-4.47s-9.26,1.47-11.58,4.41-3.49,7.23-3.49,12.87Z"/>
    <path class="cls-5" d="m463.5,77.04c0-.49.41-.88,1.23-1.16.82-.29,1.8-.43,2.94-.43h8.58c2.37,0,3.88-.2,4.54-.61.65-.41.98-1.67.98-3.8v-15.69c0-2.53-.02-5.15-.06-7.84-.04-2.7-.1-5.64-.18-8.83,0-.65.18-1.21.55-1.65.37-.45.88-.67,1.53-.67h5.88c.74,0,1.31.23,1.72.67.41.45.61,1,.61,1.65.08,2.78.14,5.11.18,6.99.04,1.88.06,3.66.06,5.33v11.46c0,3.92-.02,7.56-.06,10.91-.04,3.35-.18,5.97-.43,7.84-.16.82-.43,1.51-.8,2.08-.37.57-1.04,1.06-2.02,1.47-.65.25-1.55.43-2.7.55-1.15.12-2.45.25-3.92.37s-2.98.21-4.54.25c-1.55.04-3.02.06-4.41.06h-5.52c-1.14,0-2.12-.14-2.94-.43-.82-.29-1.23-.71-1.23-1.29v-7.23Zm17.41-65.7c0-.82.28-1.47.85-1.96.56-.49,1.21-.74,1.94-.74h5.33c.73,0,1.35.25,1.88.74.52.49.79,1.15.79,1.96v6.62c0,.74-.26,1.35-.79,1.84-.53.49-1.19.74-2,.74h-5.21c-.81,0-1.48-.25-2-.74-.52-.49-.79-1.1-.79-1.84v-6.62Z"/>
  </g>
  <circle class="cls-1" cx="487.24" cy="15.18" r="8.92"/>
  <circle class="cls-1" cx="295.31" cy="9.23" r="8.92"/>
  <circle class="cls-1" cx="234.38" cy="96.43" r="8.92"/>
</svg>